<svg width="185" height="77" viewBox="0 0 185 77" fill="none" xmlns="http://www.w3.org/2000/svg">
<path fill-rule="evenodd" clip-rule="evenodd" d="M22.336 24.3118C20.4587 23.2878 18.2613 22.7758 15.744 22.7758C12.8 22.7758 10.1333 23.5225 7.744 25.0158C5.35467 26.5092 3.456 28.6425 2.048 31.4158C0.682667 34.1892 0 37.4105 0 41.0798C0 44.7492 0.682667 47.9918 2.048 50.8078C3.456 53.5812 5.35467 55.7358 7.744 57.2718C10.1333 58.7652 12.8 59.5118 15.744 59.5118C18.2613 59.5118 20.4587 58.9998 22.336 57.9758C24.2133 56.9092 25.6853 55.5438 26.752 53.8798V58.9358C26.752 61.7945 26.0693 63.8638 24.704 65.1438C23.3813 66.4665 21.5893 67.1278 19.328 67.1278C17.4507 67.1278 15.872 66.7225 14.592 65.9118C13.312 65.1438 12.5013 64.0772 12.16 62.7118H1.344C1.81333 66.9785 3.69067 70.3492 6.976 72.8238C10.2613 75.3412 14.5493 76.5998 19.84 76.5998C23.808 76.5998 27.1147 75.8105 29.76 74.2318C32.448 72.6532 34.432 70.5198 35.712 67.8318C37.0347 65.1865 37.696 62.2212 37.696 58.9358V23.2878H26.752V28.3438C25.728 26.6798 24.256 25.3358 22.336 24.3118ZM24.448 34.6798C25.984 36.2585 26.752 38.4132 26.752 41.1438C26.752 43.8745 25.984 46.0292 24.448 47.6078C22.9547 49.1865 21.12 49.9758 18.944 49.9758C16.768 49.9758 14.912 49.1865 13.376 47.6078C11.8827 45.9865 11.136 43.8105 11.136 41.0798C11.136 38.3492 11.8827 36.2158 13.376 34.6798C14.912 33.1012 16.768 32.3118 18.944 32.3118C21.12 32.3118 22.9547 33.1012 24.448 34.6798ZM46.3815 17.9118C47.6188 19.0212 49.1975 19.5758 51.1175 19.5758C52.9948 19.5758 54.5308 19.0212 55.7255 17.9118C56.9628 16.7598 57.5815 15.3518 57.5815 13.6878C57.5815 11.9812 56.9628 10.5732 55.7255 9.46384C54.5308 8.31184 52.9948 7.73584 51.1175 7.73584C49.1975 7.73584 47.6188 8.31184 46.3815 9.46384C45.1868 10.5732 44.5895 11.9812 44.5895 13.6878C44.5895 15.3518 45.1868 16.7598 46.3815 17.9118ZM45.6135 58.9998H56.5575V23.2878H45.6135V58.9998ZM64.3605 31.4158C62.9952 34.1892 62.3125 37.4105 62.3125 41.0798C62.3125 44.7492 62.9952 47.9918 64.3605 50.8078C65.7685 53.5812 67.6672 55.7358 70.0565 57.2718C72.4458 58.7652 75.1125 59.5118 78.0565 59.5118C80.5738 59.5118 82.7712 58.9998 84.6485 57.9758C86.5685 56.9518 88.0405 55.5865 89.0645 53.8798V58.9998H100.008V21.7923L94.716 16.4998L89.856 11.6398H89.0645V28.2158C87.9552 26.5518 86.4192 25.2292 84.4565 24.2478C82.5365 23.2665 80.4032 22.7758 78.0565 22.7758C75.1125 22.7758 72.4458 23.5225 70.0565 25.0158C67.6672 26.5092 65.7685 28.6425 64.3605 31.4158ZM86.7605 34.6798C88.2965 36.2585 89.0645 38.4132 89.0645 41.1438C89.0645 43.8745 88.2965 46.0292 86.7605 47.6078C85.2672 49.1865 83.4325 49.9758 81.2565 49.9758C79.0805 49.9758 77.2245 49.1865 75.6885 47.6078C74.1952 45.9865 73.4485 43.8105 73.4485 41.0798C73.4485 38.3492 74.1952 36.2158 75.6885 34.6798C77.2245 33.1012 79.0805 32.3118 81.2565 32.3118C83.4325 32.3118 85.2672 33.1012 86.7605 34.6798ZM105.59 58.5678C106.054 58.9838 106.646 59.1918 107.366 59.1918C108.07 59.1918 108.646 58.9838 109.094 58.5678C109.558 58.1358 109.79 57.6078 109.79 56.9838C109.79 56.3438 109.558 55.8078 109.094 55.3758C108.646 54.9438 108.07 54.7278 107.366 54.7278C106.646 54.7278 106.054 54.9438 105.59 55.3758C105.142 55.8078 104.918 56.3438 104.918 56.9838C104.918 57.6078 105.142 58.1358 105.59 58.5678ZM119.779 45.9918C119.075 45.6078 118.251 45.4158 117.307 45.4158C116.203 45.4158 115.203 45.6958 114.307 46.2558C113.411 46.8158 112.699 47.6158 112.171 48.6558C111.659 49.6958 111.403 50.9038 111.403 52.2798C111.403 53.6558 111.659 54.8718 112.171 55.9278C112.699 56.9678 113.411 57.7758 114.307 58.3518C115.203 58.9118 116.203 59.1918 117.307 59.1918C118.251 59.1918 119.075 58.9998 119.779 58.6158C120.483 58.2158 121.035 57.7038 121.435 57.0798V58.9758C121.435 60.0478 121.179 60.8238 120.667 61.3038C120.171 61.7998 119.499 62.0478 118.651 62.0478C117.947 62.0478 117.355 61.8958 116.875 61.5918C116.395 61.3038 116.091 60.9038 115.963 60.3918H111.907C112.083 61.9918 112.787 63.2558 114.019 64.1838C115.251 65.1278 116.859 65.5998 118.843 65.5998C120.331 65.5998 121.571 65.3038 122.563 64.7118C123.571 64.1198 124.315 63.3198 124.795 62.3118C125.291 61.3198 125.539 60.2078 125.539 58.9758V45.6078H121.435V47.5038C121.051 46.8798 120.499 46.3758 119.779 45.9918ZM120.571 49.8798C121.147 50.4718 121.435 51.2798 121.435 52.3038C121.435 53.3278 121.147 54.1358 120.571 54.7278C120.011 55.3198 119.323 55.6158 118.507 55.6158C117.691 55.6158 116.995 55.3198 116.419 54.7278C115.859 54.1198 115.579 53.3038 115.579 52.2798C115.579 51.2558 115.859 50.4558 116.419 49.8798C116.995 49.2878 117.691 48.9918 118.507 48.9918C119.323 48.9918 120.011 49.2878 120.571 49.8798ZM134.413 46.1118C133.693 46.5278 133.092 47.1038 132.613 47.8398V45.6078H128.508V58.9998H132.613V52.7838C132.613 51.6798 132.868 50.9118 133.38 50.4798C133.893 50.0318 134.661 49.8078 135.684 49.8078H136.812V45.4638C135.932 45.4638 135.133 45.6798 134.413 46.1118ZM141.318 58.3518C142.374 58.9118 143.558 59.1918 144.87 59.1918C146.182 59.1918 147.366 58.9118 148.422 58.3518C149.494 57.7918 150.334 56.9918 150.942 55.9518C151.566 54.8958 151.878 53.6798 151.878 52.3038C151.878 50.9278 151.574 49.7198 150.966 48.6798C150.358 47.6238 149.526 46.8158 148.47 46.2558C147.414 45.6958 146.23 45.4158 144.918 45.4158C143.606 45.4158 142.422 45.6958 141.366 46.2558C140.31 46.8158 139.478 47.6238 138.87 48.6798C138.262 49.7198 137.958 50.9278 137.958 52.3038C137.958 53.6958 138.254 54.9118 138.846 55.9518C139.454 56.9918 140.278 57.7918 141.318 58.3518ZM146.862 54.7758C146.318 55.3518 145.654 55.6398 144.87 55.6398C144.086 55.6398 143.43 55.3518 142.902 54.7758C142.39 54.1998 142.134 53.3758 142.134 52.3038C142.134 51.2158 142.398 50.3918 142.926 49.8318C143.454 49.2558 144.118 48.9678 144.918 48.9678C145.702 48.9678 146.358 49.2558 146.886 49.8318C147.43 50.4078 147.702 51.2318 147.702 52.3038C147.702 53.3758 147.422 54.1998 146.862 54.7758ZM167.279 58.9998V45.6078H163.175V52.8798C163.175 53.7758 162.943 54.4718 162.479 54.9678C162.015 55.4638 161.383 55.7118 160.583 55.7118C159.799 55.7118 159.175 55.4638 158.711 54.9678C158.247 54.4718 158.015 53.7758 158.015 52.8798V45.6078H153.935V53.4318C153.935 54.5998 154.151 55.6158 154.583 56.4798C155.015 57.3438 155.623 58.0078 156.407 58.4718C157.191 58.9198 158.095 59.1438 159.119 59.1438C159.983 59.1438 160.767 58.9678 161.471 58.6158C162.191 58.2478 162.759 57.7678 163.175 57.1758V58.9998H167.279ZM175.987 45.9918C175.283 46.3758 174.731 46.8798 174.331 47.5038V45.6078H170.227V65.3838H174.331V57.1278C174.731 57.7358 175.283 58.2318 175.987 58.6158C176.707 58.9998 177.531 59.1918 178.459 59.1918C179.563 59.1918 180.563 58.9118 181.459 58.3518C182.355 57.7758 183.059 56.9678 183.571 55.9278C184.099 54.8718 184.363 53.6558 184.363 52.2798C184.363 50.9038 184.099 49.6958 183.571 48.6558C183.059 47.6158 182.355 46.8158 181.459 46.2558C180.563 45.6958 179.563 45.4158 178.459 45.4158C177.515 45.4158 176.691 45.6078 175.987 45.9918ZM179.323 49.8798C179.899 50.4558 180.187 51.2558 180.187 52.2798C180.187 53.3038 179.899 54.1198 179.323 54.7278C178.747 55.3198 178.051 55.6158 177.235 55.6158C176.419 55.6158 175.723 55.3198 175.147 54.7278C174.587 54.1358 174.307 53.3278 174.307 52.3038C174.307 51.2798 174.587 50.4718 175.147 49.8798C175.723 49.2878 176.419 48.9918 177.235 48.9918C178.067 48.9918 178.763 49.2878 179.323 49.8798Z" fill="white"/>
<path fill-rule="evenodd" clip-rule="evenodd" d="M111.216 32V0H79.2158L89.2158 10H101.208V21.992L111.216 32Z" fill="#FAFF09"/>
</svg>
