<svg width="59" height="59" viewBox="0 0 59 59" fill="none" xmlns="http://www.w3.org/2000/svg">
<path d="M57.2138 30.8166C58.0925 29.9379 58.0925 28.5133 57.2138 27.6346L51.8609 22.2817C51.5327 21.9535 51.3483 21.5084 51.3483 21.0443V7.02607C51.3483 5.78343 50.341 4.77606 49.0983 4.77606H44.2562C43.0135 4.77606 42.0062 5.78342 42.0062 7.02606V8.20211C42.0062 9.76119 40.1212 10.542 39.0187 9.43955L30.8166 1.23744C29.9379 0.358756 28.5133 0.358758 27.6346 1.23744L1.23744 27.6346C0.358758 28.5133 0.358756 29.9379 1.23744 30.8166L2.36271 31.9419C3.06258 32.6418 4.19729 32.6418 4.89716 31.9419C5.71115 31.1279 7.10295 31.7044 7.10295 32.8556V56.079C7.10295 57.3216 8.11031 58.329 9.35295 58.329H49.0983C50.341 58.329 51.3483 57.3216 51.3483 56.079V32.8556C51.3483 31.7044 52.7401 31.1279 53.5541 31.9419C54.254 32.6418 55.3887 32.6418 56.0886 31.9419L57.2138 30.8166ZM3.2948 29.5608C3.10971 29.3757 3.10971 29.0756 3.2948 28.8905L27.9882 4.1971C28.6716 3.51368 29.7797 3.51368 30.4631 4.1971L40.5267 14.2607C41.9441 15.6781 44.3677 14.6743 44.3677 12.6697V8.88757C44.3677 7.92107 45.1512 7.13757 46.1177 7.13757H47.2368C48.2033 7.13757 48.9868 7.92107 48.9868 8.88757V21.7889C48.9868 22.3856 49.2239 22.9579 49.6458 23.3799L55.1565 28.8905C55.3416 29.0756 55.3416 29.3757 55.1565 29.5608C54.9714 29.7459 54.6713 29.7459 54.4862 29.5608L30.8166 5.8912C29.9379 5.01252 28.5133 5.01252 27.6346 5.8912L3.96507 29.5608C3.77998 29.7459 3.47989 29.7459 3.2948 29.5608ZM9.46445 27.3914C9.46445 27.3859 9.46429 27.3805 9.46398 27.3751L27.9882 8.85086C28.6716 8.16745 29.7797 8.16744 30.4631 8.85086L48.9873 27.3751C48.987 27.3805 48.9868 27.3859 48.9868 27.3914V54.2175C48.9868 55.184 48.2033 55.9675 47.2368 55.9675H11.2145C10.248 55.9675 9.46445 55.184 9.46445 54.2175V27.3914Z" fill="black" stroke="black" stroke-width="0.5"/>
<path d="M43.5301 38.5335C43.5301 38.3131 43.5087 38.098 43.4683 37.8896C43.2714 36.8727 43.3095 35.6637 43.4866 34.6268C43.5151 34.4596 43.5301 34.2878 43.5301 34.1124C43.5301 32.299 42.0686 30.8374 40.2552 30.8374H34.688V24.5722C34.688 22.1072 32.7145 20.1338 30.2496 20.1338C29.2273 20.1338 28.3708 20.9903 28.3708 22.0126V25.9525C28.3708 26.1514 28.3381 26.346 28.2698 26.5266C27.419 28.7762 26.0305 30.744 24.2126 32.2527C24.18 32.2404 24.1447 32.2336 24.1077 32.2336H17.1714C15.9287 32.2336 14.9214 33.2409 14.9214 34.4836V48.1679C14.9214 49.4105 15.9287 50.4179 17.1714 50.4179H23.7908C24.1547 50.4179 24.4497 50.1229 24.4497 49.759C24.4497 49.6464 24.5761 49.5515 24.7023 49.6051C25.9528 50.1366 27.2751 50.4179 28.6673 50.4179H37.7421C39.416 50.4179 40.7844 49.0494 40.7844 47.3756C40.7844 46.7815 41.0443 46.1667 41.4786 45.7732C42.1885 45.1298 42.6459 44.1972 42.6459 43.1872C42.6459 42.1061 42.8943 40.8335 43.2882 39.8239C43.4439 39.4247 43.5301 38.9888 43.5301 38.5335ZM22.0882 48.0564H19.0329C18.0664 48.0564 17.2829 47.2729 17.2829 46.3064V36.3451C17.2829 35.3786 18.0664 34.5951 19.0329 34.5951H20.3382C21.3047 34.5951 22.0882 35.3786 22.0882 36.3451V48.0564ZM39.0917 44.3334H38.6264C37.9742 44.3334 37.4456 44.862 37.4456 45.5141C37.4456 45.8533 37.6118 46.1395 37.7803 46.3715C37.8515 46.4697 37.9295 46.5663 38.0022 46.6563C38.0163 46.6738 38.0302 46.691 38.0438 46.7079C38.1301 46.8153 38.2065 46.9132 38.2683 47.0092C38.3368 47.1154 38.3764 47.241 38.3764 47.3756C38.3764 47.7495 38.0694 48.0564 37.6956 48.0564H28.6208C27.4334 48.0564 26.2729 47.7859 25.2015 47.2653C24.6969 47.0201 24.4032 46.4737 24.4032 45.8761V35.9641C24.4032 35.4294 24.6476 34.924 25.0669 34.5921L25.4248 34.3087C25.4249 34.3087 25.4249 34.3086 25.425 34.3086C27.8843 32.3695 29.6807 29.7687 30.6729 26.792C30.7122 26.674 30.7323 26.5505 30.7323 26.4261V24.4996C30.7323 23.9785 31.0002 23.5375 31.3015 23.3443C31.4492 23.2496 31.5886 23.2236 31.7042 23.2499C31.8161 23.2754 31.9492 23.3597 32.0688 23.5749C32.2327 23.8702 32.3265 24.2091 32.3265 24.5722V30.8548C32.3265 32.1563 33.3691 33.199 34.6707 33.199H40.2552C40.7686 33.199 41.1686 33.5989 41.1686 34.1124C41.1686 34.6258 40.7686 35.0258 40.2552 35.0258C39.9886 35.0258 39.7725 35.2419 39.7725 35.5085V36.2066C39.7725 36.5427 39.9239 36.8237 40.1107 37.0502C40.2961 37.2752 40.5329 37.4664 40.7366 37.624C41.0001 37.828 41.1686 38.1509 41.1686 38.5335C41.1686 39.1865 40.6756 39.6796 40.0225 39.6796H39.5804C39.5302 39.6796 39.4831 39.6931 39.4427 39.7168C39.4175 39.7136 39.3901 39.7097 39.3598 39.7054C39.0665 39.6635 38.8417 39.8975 38.8417 40.1636V40.8603C38.8417 41.1965 38.9932 41.4774 39.1799 41.704C39.3654 41.929 39.6021 42.1201 39.8058 42.2778C40.0693 42.4817 40.2379 42.8047 40.2379 43.1872C40.2379 43.8403 39.7448 44.3334 39.0917 44.3334Z" fill="black" stroke="black" stroke-width="0.5"/>
</svg>
